<svg xmlns="http://www.w3.org/2000/svg" width="129" height="48" fill="none"><g clip-path="url(#a)" style="mix-blend-mode:luminosity"><path fill="#33475B" d="M14.18 13.106v9.088H4.765v-9.088H.293V34.8h4.47v-8.793h9.418V34.8h4.47V13.106h-4.47ZM32.96 27.787c0 .87-.39 1.703-1.084 2.318-.693.615-1.634.96-2.615.96-.98 0-1.922-.345-2.615-.96-.694-.615-1.084-1.449-1.084-2.318v-9.292h-4.24v9.292c0 1.864.835 3.652 2.323 4.97 1.487 1.32 3.505 2.06 5.608 2.06 2.104 0 4.121-.74 5.609-2.06 1.487-1.318 2.323-3.106 2.323-4.97v-9.292H32.96v9.292ZM64.381 19.453c0-1.905 1.422-2.508 2.98-2.508 1.254 0 2.912.846 3.997 1.873l2.777-2.9c-1.386-1.662-4.199-2.811-6.501-2.811-4.6 0-7.927 2.387-7.927 6.346 0 7.344 10.128 5.015 10.128 9.125 0 1.267-1.388 2.387-2.979 2.387-2.508 0-3.32-1.087-4.473-2.236l-3.082 2.84c1.972 2.146 4.403 3.235 7.317 3.235 4.37 0 7.885-2.417 7.885-6.195 0-8.154-10.129-5.62-10.129-9.156M127.042 31.334c-2.506 0-3.218-.96-3.218-2.433v-6.513h3.895v-3.3h-3.895v-4.355l-4.299 1.71v13.268c0 3.394 2.641 5.104 6.264 5.104a9.773 9.773 0 0 0 1.696-.12l1.049-3.423a25.46 25.46 0 0 1-1.492.058M49.102 18.605c-2.1 0-3.566.54-4.983 1.772v-7.14h-4.247V26.47c0 4.955 4.041 8.348 8.582 8.348 5.038 0 9.47-3.453 9.47-8.105 0-4.593-4.08-8.107-8.822-8.107v-.002Zm-.026 12.427a5.27 5.27 0 0 1-2.677-.72c-.793-.47-1.41-1.136-1.775-1.917a3.823 3.823 0 0 1-.274-2.468 4.145 4.145 0 0 1 1.319-2.186 5.038 5.038 0 0 1 2.467-1.17 5.396 5.396 0 0 1 2.784.244c.88.323 1.634.87 2.163 1.573.53.702.812 1.528.812 2.373 0 1.133-.508 2.219-1.411 3.02-.904.8-2.13 1.25-3.408 1.25ZM95.22 26.515c0-4.66-4.422-8.105-9.469-8.105-4.54 0-8.582 3.393-8.582 8.348V40h4.247v-7.15c1.415 1.23 2.883 1.773 4.981 1.773 4.743 0 8.822-3.512 8.822-8.108h.002Zm-4.02-.046c0 .844-.284 1.67-.813 2.373a4.742 4.742 0 0 1-2.163 1.573c-.88.323-1.85.408-2.784.243a5.038 5.038 0 0 1-2.468-1.17 4.146 4.146 0 0 1-1.319-2.186 3.823 3.823 0 0 1 .275-2.468c.365-.78.982-1.447 1.775-1.917a5.27 5.27 0 0 1 2.677-.72c1.278 0 2.504.45 3.408 1.252.903.8 1.411 1.887 1.411 3.02Z"/><path fill="#FF7A59" d="M108.9 18.35v-3.743a3.163 3.163 0 0 0 1.362-1.058c.332-.46.51-.994.513-1.54v-.087c-.003-.763-.346-1.494-.954-2.034-.609-.54-1.434-.843-2.295-.845h-.098c-.861.002-1.686.306-2.295.845-.608.54-.951 1.27-.954 2.034v.087c.003.546.181 1.08.513 1.54.332.46.804.827 1.362 1.058v3.743a9.833 9.833 0 0 0-4.381 1.708l-11.596-7.997c.082-.263.127-.535.131-.81.001-.641-.213-1.27-.615-1.804a3.604 3.604 0 0 0-1.643-1.198 4.103 4.103 0 0 0-2.117-.187 3.832 3.832 0 0 0-1.878.887 3.153 3.153 0 0 0-1.005 1.662c-.142.63-.07 1.283.206 1.876a3.366 3.366 0 0 0 1.348 1.46 4.006 4.006 0 0 0 3.847.112l11.401 7.867c-1.027 1.373-1.563 2.989-1.537 4.636.025 1.647.61 3.25 1.68 4.597l-3.47 3.075a3.333 3.333 0 0 0-.861-.124c-.596 0-1.178.157-1.673.45-.496.293-.882.71-1.11 1.198a2.389 2.389 0 0 0-.171 1.542c.116.518.403.994.824 1.367.422.373.958.628 1.542.73.585.104 1.19.05 1.74-.151a2.963 2.963 0 0 0 1.352-.983c.331-.44.508-.956.508-1.484a2.353 2.353 0 0 0-.14-.763l3.432-3.042a9.862 9.862 0 0 0 3.805 1.525c1.382.245 2.81.207 4.173-.112a9.706 9.706 0 0 0 3.693-1.726A8.332 8.332 0 0 0 116 29.67a7.377 7.377 0 0 0 .728-3.643 7.512 7.512 0 0 0-1.153-3.557 8.645 8.645 0 0 0-2.799-2.746 9.963 9.963 0 0 0-3.876-1.375Zm-1.422 12.312a5.192 5.192 0 0 1-2.638-.71c-.781-.462-1.39-1.12-1.749-1.888a3.765 3.765 0 0 1-.271-2.432 4.092 4.092 0 0 1 1.3-2.155 4.962 4.962 0 0 1 2.432-1.152 5.313 5.313 0 0 1 2.743.24c.868.318 1.61.857 2.132 1.55.522.692.8 1.506.8 2.338 0 1.116-.5 2.187-1.391 2.976-.89.79-2.098 1.233-3.358 1.233Z"/></g><defs><clipPath id="a"><path fill="#fff" d="M.293 0h128.626v48H.293z"/></clipPath></defs></svg>