<svg width="144" height="24" fill="none" xmlns="http://www.w3.org/2000/svg"><g clip-path="url(#a)"><path d="M11.806 3.63 23.351.229l-3.368 11.577 3.368 11.545-11.545-3.368L.23 23.35l3.4-11.545L.23.23l11.577 3.4Z" fill="#fff"/></g><path d="M32.088 20.334V1.968h7.294c1.12 0 2.116.227 2.99.682a4.823 4.823 0 0 1 2.074 1.889c.507.805.76 1.775.76 2.912v.341c0 1.137-.262 2.117-.787 2.939a5.03 5.03 0 0 1-2.072 1.889c-.875.437-1.863.656-2.965.656h-4.46v7.058h-2.834Zm2.834-9.63h4.171c.997 0 1.793-.262 2.388-.786.594-.525.892-1.242.892-2.152v-.262c0-.927-.297-1.653-.892-2.178-.595-.525-1.39-.787-2.388-.787h-4.172v6.166ZM53.678 20.701c-1.295 0-2.45-.262-3.464-.787a5.992 5.992 0 0 1-2.361-2.309c-.577-.997-.866-2.178-.866-3.542v-.394c0-1.364.289-2.536.866-3.515a5.993 5.993 0 0 1 2.361-2.31c1.015-.541 2.17-.812 3.464-.812s2.448.27 3.463.813a5.947 5.947 0 0 1 2.387 2.309c.578.98.866 2.151.866 3.515v.394c0 1.364-.288 2.545-.866 3.542a5.946 5.946 0 0 1-2.387 2.309c-1.015.525-2.17.787-3.463.787Zm0-2.414c1.189 0 2.15-.376 2.886-1.128.752-.77 1.128-1.828 1.128-3.175v-.236c0-1.347-.367-2.396-1.102-3.148-.735-.77-1.706-1.155-2.913-1.155-1.171 0-2.133.385-2.886 1.155-.734.752-1.101 1.801-1.101 3.148v.236c0 1.347.367 2.405 1.101 3.175.753.752 1.715 1.128 2.887 1.128ZM69.059 20.701c-1.645 0-3.009-.367-4.093-1.102-1.085-.735-1.75-1.845-1.994-3.332l2.518-.603c.14.717.376 1.285.709 1.705.332.42.743.717 1.233.892.507.175 1.05.262 1.627.262.857 0 1.513-.166 1.967-.498.473-.332.709-.761.709-1.286 0-.524-.219-.91-.656-1.154-.438-.245-1.085-.446-1.942-.604l-.892-.157a11.582 11.582 0 0 1-2.387-.682c-.718-.298-1.286-.709-1.706-1.233-.42-.525-.63-1.199-.63-2.02 0-1.225.455-2.17 1.365-2.834.91-.682 2.116-1.023 3.62-1.023 1.452 0 2.642.332 3.569.997a4.402 4.402 0 0 1 1.836 2.65l-2.518.708c-.158-.787-.49-1.338-.997-1.653-.508-.332-1.137-.499-1.89-.499-.734 0-1.311.14-1.731.42-.42.263-.63.639-.63 1.128 0 .525.201.91.604 1.155.42.245.98.428 1.679.55l.918.158c.927.158 1.776.376 2.545.656.77.28 1.373.682 1.81 1.207.455.525.683 1.224.683 2.1 0 1.293-.481 2.3-1.443 3.016-.962.718-2.257 1.076-3.883 1.076ZM77.543 20.334V7.399h2.703v12.935h-2.703ZM78.908 5.64c-.525 0-.971-.166-1.338-.499-.35-.35-.525-.795-.525-1.338 0-.542.175-.98.525-1.311.367-.35.813-.525 1.338-.525.542 0 .988.175 1.338.525.35.332.525.77.525 1.311 0 .543-.175.989-.525 1.338-.35.333-.796.499-1.338.499ZM89.11 20.334c-.787 0-1.417-.236-1.889-.709-.455-.472-.682-1.102-.682-1.889V9.681h-3.568V7.4h3.568V3.122h2.702V7.4h3.857V9.68h-3.857v7.583c0 .525.245.787.735.787h2.703v2.283H89.11ZM96.273 20.334V7.399h2.703v12.935h-2.703ZM97.638 5.64c-.525 0-.971-.166-1.339-.499-.35-.35-.524-.795-.524-1.338 0-.542.175-.98.524-1.311.368-.35.814-.525 1.338-.525.543 0 .989.175 1.339.525.35.332.524.77.524 1.311 0 .543-.175.989-.524 1.338-.35.333-.796.499-1.338.499ZM105.977 20.334l-4.355-12.935h2.86l3.437 10.94h.42l3.437-10.94h2.859l-4.355 12.935h-4.303ZM122.216 20.57c-.979 0-1.854-.219-2.623-.656a4.646 4.646 0 0 1-1.811-1.863c-.437-.804-.655-1.766-.655-2.886V7.399h2.702v7.582c0 1.12.28 1.95.84 2.493.559.525 1.338.787 2.335.787 1.102 0 1.985-.367 2.65-1.102.682-.752 1.023-1.828 1.023-3.227V7.399h2.702v12.935h-2.65v-1.942h-.42c-.244.525-.682 1.023-1.311 1.496-.63.454-1.557.682-2.782.682ZM138.674 20.701c-1.644 0-3.009-.367-4.093-1.102-1.085-.735-1.749-1.845-1.994-3.332l2.519-.603c.14.717.376 1.285.708 1.705.332.42.743.717 1.233.892.507.175 1.05.262 1.627.262.857 0 1.513-.166 1.968-.498.472-.332.708-.761.708-1.286 0-.524-.219-.91-.656-1.154-.437-.245-1.084-.446-1.941-.604l-.892-.157a11.576 11.576 0 0 1-2.388-.682c-.717-.298-1.286-.709-1.705-1.233-.42-.525-.63-1.199-.63-2.02 0-1.225.455-2.17 1.364-2.834.91-.682 2.117-1.023 3.621-1.023 1.452 0 2.641.332 3.568.997.945.647 1.557 1.53 1.837 2.65l-2.519.708c-.157-.787-.49-1.338-.997-1.653-.507-.332-1.137-.499-1.889-.499-.735 0-1.312.14-1.732.42-.42.263-.629.639-.629 1.128 0 .525.201.91.603 1.155.42.245.98.428 1.679.55l.919.158c.927.158 1.775.376 2.544.656.77.28 1.374.682 1.811 1.207.455.525.682 1.224.682 2.1 0 1.293-.481 2.3-1.443 3.016-.962.718-2.256 1.076-3.883 1.076Z" fill="#fff"/><defs><clipPath id="a"><path fill="#fff" d="M0 0h23.613v23.613H0z"/></clipPath></defs></svg>