<svg width="30" height="31" fill="none" xmlns="http://www.w3.org/2000/svg"><circle cx="15" cy="15.613" r="15" fill="#fff"/><g fill="#000"><path d="M8.222 22.672h3.084v-9.985H8.222v9.985ZM7.941 9.5c0 .984.795 1.781 1.823 1.781.981 0 1.776-.797 1.776-1.781 0-.984-.795-1.828-1.776-1.828A1.828 1.828 0 0 0 7.94 9.5ZM19.81 22.672h3.131v-5.485c0-2.671-.607-4.78-3.738-4.78-1.495 0-2.523.843-2.944 1.64h-.047v-1.36h-2.944v9.985h3.085V17.75c0-1.313.233-2.578 1.869-2.578 1.589 0 1.589 1.5 1.589 2.625v4.875Z"/></g></svg>