<svg width="30" height="31" fill="none" xmlns="http://www.w3.org/2000/svg"><circle cx="15" cy="15.613" r="15" fill="#fff"/><path d="M21.996 12.105a7.668 7.668 0 0 0 1.792-1.861 6.783 6.783 0 0 1-2.068.551 3.536 3.536 0 0 0 1.586-1.999 7.643 7.643 0 0 1-2.275.896 3.619 3.619 0 0 0-2.654-1.137c-1.999 0-3.619 1.62-3.619 3.619 0 .275.035.551.103.827A10.5 10.5 0 0 1 7.382 9.21a3.52 3.52 0 0 0-.482 1.826c0 1.241.62 2.344 1.62 2.999-.586-.034-1.172-.172-1.655-.448v.034a3.624 3.624 0 0 0 2.895 3.55c-.275.07-.62.138-.93.138-.242 0-.448-.034-.69-.069a3.601 3.601 0 0 0 3.378 2.516 7.276 7.276 0 0 1-4.48 1.551c-.31 0-.586-.034-.862-.069 1.585 1.035 3.48 1.62 5.549 1.62 6.652 0 10.271-5.48 10.271-10.27v-.483Z" fill="#000"/></svg>