<svg width="692" height="649" fill="none" xmlns="http://www.w3.org/2000/svg"><mask id="b" style="mask-type:alpha" maskUnits="userSpaceOnUse" x="41" y="0" width="651" height="649"><mask id="a" maskUnits="userSpaceOnUse" x="40.711" y="-.5" width="651" height="650" fill="#000"><path fill="#fff" d="M40.711-.5h651v650h-651z"/><path d="M366.641 162.061 387.068.5l-.159 162.837L427.445 5.604l-20.428 161.561 60.007-151.514-40.536 157.894 78.519-142.902-60.166 151.514L540.756 50.26l-78.679 142.902L573.632 74.343 477.876 206.08l125.599-103.827-111.714 118.66 137.728-87.24L503.73 237.499l147.623-69.377-137.728 87.24 155.124-50.398-147.623 69.377 160.23-30.622-155.123 50.399 162.784-10.367-160.231 30.462L691.57 324.42l-162.784 10.208 160.231 30.462-162.784-10.207 155.123 50.238-160.23-30.462 147.623 69.377-155.124-50.398 137.728 87.24-147.623-69.377 125.759 103.827-137.728-87.4 111.714 118.819L477.876 442.76l95.756 131.897-111.555-118.819 78.679 142.742-95.915-131.896 60.166 151.513-78.519-142.742 40.536 157.734-60.007-151.513 20.428 161.72-40.536-157.893.159 162.997-20.427-161.721L346.213 648.5V485.503l-40.537 157.893 20.588-161.72-60.007 151.513 40.537-157.734-78.52 142.742 60.166-151.513-95.914 131.896 78.679-142.742L159.49 574.657l95.915-131.897-125.599 103.987L241.52 427.928l-137.728 87.4 125.759-103.827-147.623 69.377 137.728-87.24-155.123 50.398 147.622-69.377-160.23 30.462 155.123-50.238L44.264 365.09l160.231-30.462L41.711 324.42l162.784-10.207-160.23-30.462 162.783 10.367-155.123-50.399 160.23 30.622-147.622-69.377 155.123 50.398-137.728-87.24 147.623 69.377-125.759-103.826 137.728 87.24-111.714-118.66L255.405 206.08 159.49 74.343l111.715 118.819L192.526 50.26l95.914 131.897-60.166-151.514 78.52 142.902-40.537-157.894 60.007 151.514L305.676 5.604l40.537 157.733V.5l20.428 161.561Z"/></mask><path d="M366.641 162.061 387.068.5l-.159 162.837L427.445 5.604l-20.428 161.561 60.007-151.514-40.536 157.894 78.519-142.902-60.166 151.514L540.756 50.26l-78.679 142.902L573.632 74.343 477.876 206.08l125.599-103.827-111.714 118.66 137.728-87.24L503.73 237.499l147.623-69.377-137.728 87.24 155.124-50.398-147.623 69.377 160.23-30.622-155.123 50.399 162.784-10.367-160.231 30.462L691.57 324.42l-162.784 10.208 160.231 30.462-162.784-10.207 155.123 50.238-160.23-30.462 147.623 69.377-155.124-50.398 137.728 87.24-147.623-69.377 125.759 103.827-137.728-87.4 111.714 118.819L477.876 442.76l95.756 131.897-111.555-118.819 78.679 142.742-95.915-131.896 60.166 151.513-78.519-142.742 40.536 157.734-60.007-151.513 20.428 161.72-40.536-157.893.159 162.997-20.427-161.721L346.213 648.5V485.503l-40.537 157.893 20.588-161.72-60.007 151.513 40.537-157.734-78.52 142.742 60.166-151.513-95.914 131.896 78.679-142.742L159.49 574.657l95.915-131.897-125.599 103.987L241.52 427.928l-137.728 87.4 125.759-103.827-147.623 69.377 137.728-87.24-155.123 50.398 147.622-69.377-160.23 30.462 155.123-50.238L44.264 365.09l160.231-30.462L41.711 324.42l162.784-10.207-160.23-30.462 162.783 10.367-155.123-50.399 160.23 30.622-147.622-69.377 155.123 50.398-137.728-87.24 147.623 69.377-125.759-103.826 137.728 87.24-111.714-118.66L255.405 206.08 159.49 74.343l111.715 118.819L192.526 50.26l95.914 131.897-60.166-151.514 78.52 142.902-40.537-157.894 60.007 151.514L305.676 5.604l40.537 157.733V.5l20.428 161.561Z" stroke="#000" stroke-width="2" stroke-miterlimit="10" mask="url(#a)"/></mask><g mask="url(#b)"><rect x="-785.721" y="-37.617" width="1152.83" height="702.852" rx="45" fill="#000"/></g><path d="m95.715 470.596 45.707 24.904-45.707 25.104L70.71 566.21l-25.004-45.606L0 495.5l45.707-24.904 25.004-45.807 25.004 45.807Z" fill="#F3F3F3"/><path d="m217.102 244.065 81.675 44.501-81.675 44.859-44.68 81.497-44.68-81.497-81.675-44.859 81.675-44.501 44.68-81.854 44.68 81.854Z" fill="#191A23"/></svg>