<svg xmlns="http://www.w3.org/2000/svg" width="601" height="515" fill="none"><g clip-path="url(#a)"><path fill="#000" stroke="#fff" stroke-miterlimit="10" d="m311.536 432.535 17.601-5.186L324.001 445l5.136 17.601-17.601-5.136-17.651 5.136L299.07 445l-5.185-17.651 17.651 5.186Z"/></g><g clip-path="url(#b)"><path fill="#000" stroke="#fff" stroke-miterlimit="10" d="m125.484 345.509 31.476 17.15-31.476 17.288-17.218 31.407-17.22-31.407-31.475-17.288 31.476-17.15 17.219-31.545 17.218 31.545Z"/></g><path stroke="#000" d="M565.117 389.333c-1.899 3.444-5.438 5.935-10.533 7.48-5.098 1.546-11.71 2.13-19.671 1.787-15.921-.687-37.122-5.076-62.137-12.732-50.02-15.31-115.182-43.652-183.621-81.403-68.44-37.75-127.173-77.748-166.806-111.89-19.819-17.074-34.841-32.666-43.915-45.765-4.537-6.551-7.57-12.455-8.982-17.592-1.412-5.134-1.192-9.456.708-12.899 1.9-3.444 5.438-5.935 10.533-7.48 5.098-1.546 11.71-2.13 19.671-1.787 15.921.687 37.122 5.076 62.137 12.732 50.02 15.31 115.182 43.652 183.621 81.403 68.44 37.75 127.173 77.747 166.806 111.89 19.819 17.073 34.841 32.665 43.915 45.765 4.537 6.551 7.571 12.455 8.982 17.592 1.412 5.134 1.192 9.455-.708 12.899Z"/><path stroke="#000" d="M544.887 426.007c-1.9 3.444-5.438 5.935-10.533 7.48-5.098 1.546-11.71 2.13-19.671 1.786-15.921-.686-37.123-5.075-62.137-12.731-50.02-15.31-115.182-43.652-183.622-81.403-68.439-37.751-127.172-77.748-166.805-111.89-19.82-17.074-34.842-32.666-43.915-45.766-4.538-6.55-7.57-12.454-8.983-17.591-1.411-5.134-1.191-9.456.708-12.9 1.9-3.443 5.438-5.935 10.533-7.48 5.098-1.545 11.71-2.129 19.672-1.786 15.92.687 37.122 5.076 62.136 12.732 50.021 15.309 115.182 43.652 183.622 81.402 68.439 37.751 127.172 77.748 166.805 111.89 19.82 17.074 34.842 32.666 43.915 45.766 4.538 6.551 7.571 12.455 8.983 17.591 1.411 5.134 1.191 9.456-.708 12.9Z"/><path stroke="#000" d="M524.658 462.681c-1.899 3.444-5.438 5.935-10.533 7.48-5.098 1.546-11.71 2.13-19.671 1.787-15.921-.687-37.122-5.076-62.137-12.732-50.02-15.31-115.182-43.652-183.621-81.403-68.44-37.75-127.173-77.747-166.805-111.89-19.82-17.073-34.842-32.665-43.916-45.765-4.537-6.551-7.57-12.455-8.982-17.592-1.412-5.134-1.192-9.455.708-12.899 1.9-3.444 5.438-5.935 10.533-7.48 5.098-1.546 11.71-2.13 19.671-1.787 15.92.687 37.122 5.076 62.137 12.732 50.02 15.31 115.182 43.652 183.621 81.403 68.44 37.75 127.173 77.748 166.806 111.89 19.819 17.074 34.841 32.666 43.915 45.765 4.537 6.551 7.571 12.455 8.982 17.592 1.412 5.134 1.192 9.455-.708 12.899Z"/><circle cx="132.037" cy="104.5" r="15.5" fill="#B9FF66"/><circle cx="421.537" cy="435" r="10" fill="#B9FF66"/><circle cx="82.037" cy="64.5" r="23.5" fill="#000"/><path fill="#000" d="M306.509 383.59c-6.304 2.154-13.508-2.115-16.014-9.519L251.496 259.81l22.788-7.795 39.038 114.418c2.506 7.325-.548 15.003-6.813 17.157Z"/><path fill="#000" d="M303.102 385c-1.84 0-3.719-.431-5.521-1.332-3.641-1.802-6.539-5.17-7.948-9.323l-38.999-114.261a.863.863 0 0 1 .548-1.097l22.789-7.795c.235-.079.47-.079.665.039a.923.923 0 0 1 .431.509l39.038 114.419c2.623 7.755-.666 15.942-7.361 18.253a11.259 11.259 0 0 1-3.642.588Zm-50.51-124.642 38.725 113.439c1.253 3.721 3.837 6.777 7.047 8.343 2.585 1.254 5.365 1.489 7.871.627 5.795-1.998 8.614-9.205 6.265-16.06l-38.764-113.596-21.144 7.247Z"/><path fill="#B9FF66" d="m270.251 153.382-73.73 52.606-28.7 29.81-11.277 19.938-.039.156c-2.232 3.447-.94 11.399 3.25 19.507 4.111 7.991 9.906 13.554 13.978 13.867l-.117.078 21.652 2.351 40.526-6.464 86.024-30.788 106.933 18.332.744.039c-26.86-5.014-63.118-40.934-89.47-91.738-26.312-50.766-34.691-100.944-23.14-125.7h-.04l-46.007 96.752-.587 1.254Z"/><path fill="#fff" d="M447.266 270.603c26.428-13.73 21.317-75.974-11.414-139.026-32.731-63.052-80.689-103.036-107.116-89.306-26.428 13.73-21.317 75.974 11.414 139.026 32.731 63.052 80.689 103.036 107.116 89.306Z"/><path fill="#000" d="M435.643 274.185c-11.512 0-25.373-6.424-40.291-18.919-20.321-17-40.251-43.206-56.109-73.838-24.002-46.378-33.909-93.932-25.216-121.155 2.897-9.088 7.753-15.434 14.37-18.842 13.156-6.737 31.676-1.018 52.194 16.139 20.321 17 40.251 43.205 56.109 73.837 24.042 46.379 33.948 93.932 25.216 121.156-2.897 9.088-7.753 15.433-14.37 18.841-3.563 1.88-7.557 2.781-11.903 2.781ZM340.378 40.413c-4.033 0-7.792.823-11.159 2.585-6.226 3.173-10.768 9.205-13.508 17.862-8.575 26.832 1.292 73.877 25.098 119.863 32.421 62.556 79.955 102.589 105.993 89.232 6.226-3.173 10.768-9.205 13.509-17.862 8.575-26.832-1.292-73.877-25.099-119.863-28.231-54.448-67.856-91.817-94.834-91.817Z"/><path fill="#000" d="M435.643 274.185c-11.512 0-25.373-6.424-40.291-18.919-20.321-17.001-40.251-43.206-56.109-73.838-24.002-46.378-33.909-93.932-25.216-121.155 2.897-9.088 7.753-15.434 14.37-18.842 8.81-4.544 20.321-3.408 33.282 3.251 12.412 6.385 25.842 17.706 38.92 32.708.313.353.274.901-.078 1.215a.865.865 0 0 1-1.214-.079c-26.547-30.475-53.408-44.106-70.088-35.528-6.226 3.173-10.768 9.205-13.508 17.862-8.575 26.832 1.292 73.877 25.098 119.863 28.192 54.409 67.856 91.817 94.795 91.817 4.033 0 7.792-.823 11.159-2.585 6.226-3.173 10.768-9.205 13.509-17.862 8.575-26.832-1.292-73.877-25.099-119.863-7.087-13.71-15.075-26.598-23.65-38.31-.274-.391-.195-.94.196-1.214.392-.274.94-.196 1.214.196 8.653 11.79 16.641 24.756 23.806 38.544 24.003 46.339 33.909 93.893 25.177 121.117-2.897 9.087-7.753 15.433-14.37 18.841-3.563 1.88-7.557 2.781-11.903 2.781Z"/><path fill="#B9FF66" d="M387.303 190.339c6.123-3.181 4.945-17.588-2.63-32.18-7.575-14.592-18.678-23.843-24.801-20.662-6.122 3.181-4.944 17.588 2.631 32.18 7.574 14.592 18.678 23.843 24.8 20.662Z"/><path fill="#B9FF66" d="M384.624 191.848c-6.735 0-16.132-8.696-22.906-21.818-5.638-10.89-7.948-22.093-5.873-28.556.744-2.272 1.958-3.878 3.641-4.74 6.657-3.408 18.051 5.876 25.96 21.113 5.639 10.89 7.949 22.093 5.874 28.556-.744 2.272-1.958 3.878-3.642 4.74-.94.47-1.958.705-3.054.705Zm-22.084-54.134c-.822 0-1.605.156-2.271.509-1.292.666-2.231 1.919-2.819 3.76-1.918 6.033.314 16.765 5.756 27.263 7.205 13.906 18.051 23.268 23.65 20.369 1.292-.666 2.232-1.919 2.819-3.76 1.919-6.072-.352-16.765-5.756-27.263-6.343-12.182-15.427-20.878-21.379-20.878Z"/><path fill="#000" d="M429.692 259.574c-10.102 0-22.24-5.64-35.318-16.569-17.777-14.885-35.24-37.839-49.101-64.632-21.026-40.581-29.68-82.22-22.083-106.075 2.545-7.991 6.813-13.553 12.647-16.57 13.391-6.854 33.086 1.058 54.073 21.701a.83.83 0 0 1 0 1.215c-.352.352-.861.352-1.214 0-20.439-20.095-39.429-27.93-52.076-21.388-5.404 2.781-9.358 7.991-11.786 15.551-7.479 23.424 1.136 64.554 21.966 104.782 24.629 47.593 59.281 80.262 82.853 80.262 3.524 0 6.773-.744 9.749-2.233 5.404-2.781 9.358-7.991 11.786-15.551 7.479-23.424-1.136-64.554-21.966-104.782-6.304-12.143-13.352-23.542-20.948-33.844-.274-.392-.196-.94.196-1.214.391-.274.939-.196 1.213.196 7.675 10.419 14.762 21.857 21.105 34.078 21.026 40.581 29.68 82.22 22.084 106.075-2.545 7.991-6.813 13.554-12.647 16.57-3.211 1.606-6.735 2.428-10.533 2.428Z"/><path fill="#000" d="M195.308 292.517h-.078l-21.653-2.35a.632.632 0 0 1-.352-.117c-4.464-.706-10.102-6.346-14.214-14.259-4.385-8.343-5.677-16.491-3.289-20.329l.04-.118 11.276-19.977a.545.545 0 0 1 .118-.157l28.701-29.809.117-.117 73.534-52.49 46.516-97.81a.924.924 0 0 1 .509-.43c.235-.079.47-.079.666.039a.86.86 0 0 1 .43 1.136c-11.785 25.265-2.466 75.482 23.141 124.916 25.647 49.512 61.395 86.176 88.922 91.229.43.079.744.47.704.94-.039.431-.43.745-.861.784l-.744-.039h-.117l-106.738-18.293-85.828 30.71c-.039 0-.117.039-.157.039l-40.525 6.463c-.039.039-.078.039-.118.039Zm-21.104-3.995 21.104 2.272 40.33-6.463 85.985-30.75c.157-.039.274-.078.431-.039l96.087 16.452c-25.96-11.399-56.305-45.047-78.82-88.526-22.357-43.167-32.342-87-26.86-114.693l-41.426 86.96c-.079.117-.157.235-.274.313l-73.651 52.607-28.584 29.652-11.277 19.977c0 .039-.039.079-.039.079-2.036 3.172-.665 11.007 3.289 18.645 3.877 7.482 9.476 13.122 13.313 13.396.157 0 .274.04.392.118Z"/><path fill="#fff" d="m270.367 153.069 46.478-97.732h.039c-11.551 24.756-3.133 74.934 23.141 125.7 26.351 50.844 62.609 86.763 89.548 91.699l-.744-.039-106.777-18.293-2.466-.431c-12.413-2.194-28.975-18.332-40.839-41.365-12.178-23.62-14.331-47.161-8.928-58.364l.548-1.175Z"/><path fill="#000" d="M429.573 273.598c-.039 0 0 0 0 0l-.783-.04h-.118l-106.776-18.292-2.467-.431c-13.117-2.311-29.758-19.116-41.465-41.796-13.274-25.774-13.939-48.728-8.928-59.148l.588-1.175 46.477-97.692a.924.924 0 0 1 .509-.431c.235-.079.47-.079.666.039.43.196.626.705.43 1.136-11.785 25.265-2.466 75.482 23.141 124.916 25.647 49.512 61.396 86.176 88.922 91.229.43.079.744.47.704.94-.117.392-.469.745-.9.745ZM312.381 66.775l-41.23 86.685-.588 1.175c-4.972 10.342-3.523 33.452 8.928 57.582 11.472 22.249 27.643 38.701 40.251 40.894l2.467.431 95.891 16.452c-25.96-11.399-56.305-45.047-78.819-88.527-22.358-43.166-32.342-86.998-26.9-114.692ZM194.133 292.4h-.078l-20.517-2.194a.635.635 0 0 1-.353-.117c-4.464-.705-10.102-6.346-14.213-14.258-4.346-8.383-5.639-16.531-3.25-20.369l.039-.118 11.277-19.977c.235-.431.744-.548 1.174-.313.431.235.549.744.314 1.175l-11.277 20.055c0 .039-.039.079-.039.079-2.036 3.172-.666 11.007 3.289 18.645 3.876 7.482 9.475 13.122 13.313 13.396.117 0 .274.04.352.118l20.048 2.154c.469.04.822.47.743.94-.039.431-.391.784-.822.784Z"/><path fill="#fff" d="M195.503 291.538c-6.656-.47-15.975-9.91-22.749-22.954-7.165-13.828-8.849-28.125-4.464-33.217l-11.707 20.369-.078.156c-2.232 3.447-.94 11.399 3.25 19.507 4.111 7.991 9.906 13.554 13.978 13.867l-.117.078 21.887 2.194Z"/><path fill="#000" d="M195.504 292.4h-.079c-.156 0-.352-.04-.509-.04l-21.378-2.154a.629.629 0 0 1-.353-.118c-4.464-.705-10.102-6.345-14.213-14.258-4.346-8.382-5.639-16.53-3.25-20.369l.039-.117 10.298-17.94c.391-1.019.9-1.92 1.527-2.664.274-.353.783-.392 1.135-.157.353.274.47.744.235 1.136l-1.448 2.468c-2.311 6.228-.04 18.449 5.912 29.887 6.461 12.496 15.271 21.623 21.575 22.445l.469.04c.47.039.823.47.784.94.039.548-.314.901-.744.901Zm-21.34-3.878 14.957 1.527c-5.755-3.682-12.099-11.281-17.15-21.074-4.894-9.44-7.322-19.233-6.93-26.283l-7.792 13.592c0 .039-.039.078-.039.078-2.036 3.173-.666 11.007 3.289 18.646 3.876 7.481 9.475 13.122 13.313 13.396.117 0 .274.039.352.118Z"/><path fill="#000" d="m234.345 285.388 1.723-.353c-9.319 1.959-24.042-12.143-34.418-32.159-10.611-20.447-12.608-40.855-5.09-46.888l-.979.98-27.213 28.281c-4.463 5.014-2.819 19.39 4.386 33.295 6.93 13.397 16.758 22.955 23.454 22.915l38.137-6.071Z"/><path fill="#000" d="M196.169 292.36c-7.126 0-17.032-9.596-24.198-23.385-7.282-14.101-9.123-28.829-4.267-34.274l26.703-27.733a9.112 9.112 0 0 1 1.606-1.645.894.894 0 0 1 1.174.078c.314.352.314.862 0 1.175l-1.527 1.606c-5.442 7.286-2.74 25.931 6.774 44.302 10.259 19.821 24.59 33.413 33.361 31.768l.117-.039a.879.879 0 0 1 1.018.666.879.879 0 0 1-.666 1.018c-.039 0-.078 0-.117.039l-1.605.314h-.04l-38.137 6.071c-.078 0-.156.039-.196.039Zm-4.033-80.535-23.14 24.051c-4.307 4.857-2.35 19.037 4.542 32.316 6.734 13.005 16.249 22.406 22.631 22.445l33.674-5.367c-9.084-3.212-20.282-15.315-28.936-31.963-8.222-15.864-11.394-32.003-8.771-41.482ZM359.878 137.479c-6.147 3.133-5.247 17.666 2.584 32.159 13.117 24.247 23.572 21.387 24.786 20.956.039 0 .039.04 0 .04l-22.515 18.136c-6.617-9.284-12.921-19.625-18.716-30.789-5.521-10.693-10.18-21.348-13.861-31.689l27.722-8.813Z"/><path fill="#000" d="M364.733 209.631h-.117a.928.928 0 0 1-.588-.352c-6.773-9.519-13.077-19.938-18.755-30.867-5.443-10.498-10.141-21.191-13.9-31.767-.078-.235-.078-.471.039-.666a.926.926 0 0 1 .509-.431l27.722-8.814c.431-.117.901.079 1.057.509.157.431 0 .901-.391 1.097-1.332.666-2.311 1.998-2.898 3.957-1.918 6.149.431 17.039 5.873 27.028 12.804 23.659 22.671 20.956 23.729 20.564.391-.156.861.039 1.057.392a.957.957 0 0 1-.196 1.136l-22.593 18.019a.935.935 0 0 1-.548.195Zm-31.441-62.791c3.719 10.224 8.261 20.565 13.508 30.75 5.482 10.576 11.59 20.643 18.129 29.926l19.538-15.746c-4.463-.196-12.882-3.526-22.749-21.74-5.716-10.537-8.066-21.662-5.991-28.36.275-.862.588-1.606.979-2.311l-23.414 7.481ZM475.723 81.597c17.9-9.403 24.824-31.481 15.464-49.312-9.36-17.83-31.458-24.662-49.358-15.258-17.9 9.403-24.823 31.481-15.464 49.312 9.36 17.83 31.458 24.662 49.358 15.258Z"/><path fill="#fff" d="M442.104 41.235c1.723-2.35 4.268-3.8 7.166-4.113 2.192-.235 4.228.235 6.147 1.41.979.588 1.84 1.332 2.663 2.233.587-1.057 1.292-1.998 2.114-2.781 1.605-1.567 3.524-2.468 5.678-2.703 2.897-.313 5.716.549 7.909 2.468 2.153 1.88 3.524 4.622 3.876 7.717.353 3.172-.509 6.228-2.701 9.597-1.958 3.016-4.934 6.15-8.38 9.831-1.174 1.254-2.506 2.664-3.876 4.153a2.13 2.13 0 0 1-1.41.705c-.548.078-1.057-.079-1.527-.392a273.797 273.797 0 0 0-4.698-3.212c-4.151-2.82-7.753-5.249-10.337-7.756-2.898-2.781-4.386-5.601-4.738-8.774-.313-3.095.431-6.072 2.114-8.383Z"/><path fill="#B9FF66" d="M577.272 83.593c13.105-13.11 13.105-34.365 0-47.475-13.104-13.11-34.35-13.11-47.455 0-13.104 13.11-13.104 34.365 0 47.474 13.105 13.11 34.351 13.11 47.455 0Z"/><path fill="#B9FF66" d="M553.539 94.273c-18.952 0-34.418-15.433-34.418-34.431 0-18.959 15.427-34.431 34.418-34.431 18.99 0 34.417 15.433 34.417 34.43 0 18.96-15.427 34.432-34.417 34.432Zm0-67.139c-18.012 0-32.695 14.65-32.695 32.708 0 18.019 14.644 32.708 32.695 32.708 18.011 0 32.694-14.65 32.694-32.708 0-18.019-14.644-32.708-32.694-32.708Z"/><path fill="#000" d="M562.622 63.171c-1.879 0-3.524.901-4.62 2.311l-11.316-4.426c0-.157.039-.274.039-.43 0-.275-.039-.55-.078-.823l11.59-5.367a5.971 5.971 0 0 0 4.385 2.037c3.211 0 5.873-2.624 5.873-5.876 0-3.25-2.623-5.914-5.873-5.914-3.211 0-5.873 2.624-5.873 5.875 0 .275.039.549.078.823l-11.59 5.366a5.971 5.971 0 0 0-4.385-2.037c-3.211 0-5.873 2.625-5.873 5.876 0 3.251 2.623 5.915 5.873 5.915 1.879 0 3.524-.901 4.62-2.311l11.316 4.426c0 .157-.039.274-.039.431 0 3.251 2.623 5.915 5.873 5.915 3.211 0 5.873-2.625 5.873-5.876-.039-3.251-2.662-5.875-5.873-5.915ZM563.067 189.993c15.366-10.671 19.227-31.71 8.623-46.994-10.605-15.284-31.658-19.024-47.025-8.354-15.366 10.67-19.227 31.71-8.623 46.994 10.605 15.284 31.658 19.024 47.025 8.354Z"/><path fill="#fff" d="m535.411 178.373-4.933-26.754a1.89 1.89 0 0 1 2.349-2.154l29.171 8.265c1.488.431 1.84 2.35.626 3.29l-24.276 18.489c-1.057.862-2.663.274-2.937-1.136Z"/><path fill="#B9FF66" d="M543.535 299.582c18.977-9.242 26.917-32.029 17.736-50.896-9.181-18.867-32.007-26.67-50.984-17.428-18.976 9.241-26.916 32.028-17.735 50.895 9.181 18.867 32.007 26.67 50.983 17.429Z"/><path fill="#000" d="M526.718 304.347c-4.072 0-8.223-.627-12.256-1.998-9.867-3.29-17.855-10.184-22.475-19.507-4.62-9.283-5.325-19.82-1.997-29.691 6.891-20.33 29.053-31.416 49.453-24.639 9.867 3.29 17.855 10.184 22.475 19.507 4.621 9.284 5.325 19.821 1.997 29.692-5.56 16.295-20.87 26.636-37.197 26.636Zm.391-76.07c-15.623 0-30.267 9.871-35.553 25.461-3.171 9.44-2.506 19.507 1.919 28.36 4.424 8.892 12.06 15.512 21.496 18.645 19.499 6.463 40.682-4.113 47.261-23.541 3.171-9.441 2.505-19.508-1.919-28.36-4.425-8.892-12.06-15.512-21.496-18.646-3.877-1.331-7.831-1.919-11.708-1.919Z"/><path fill="#000" d="M546.375 259.261c-.392 9.519-16.484 31.768-20.322 36.978-.391.548-1.213.509-1.566-.079-2.427-3.917-10.454-17.078-14.644-27.733-1.683-4.23-2.741-8.069-2.623-10.772.431-10.811 9.554-19.233 20.361-18.802 10.806.509 19.225 9.597 18.794 20.408Z"/><path fill="#B9FF66" d="M533.13 264.827a8.972 8.972 0 0 0 0-12.686 8.963 8.963 0 0 0-12.68 0 8.972 8.972 0 0 0 0 12.686 8.963 8.963 0 0 0 12.68 0Z"/><defs><clipPath id="a"><path fill="#fff" d="M293.537 427h36v36h-36z"/></clipPath><clipPath id="b"><path fill="#fff" d="m108.266 313 49.728 49.728-49.728 49.728-49.728-49.728z"/></clipPath></defs></svg>